<?xml version="1.0" encoding="utf-8"?>
<!-- Generator: Adobe Illustrator 28.1.0, SVG Export Plug-In . SVG Version: 6.00 Build 0)  -->
<svg version="1.1" id="Layer_1" xmlns="http://www.w3.org/2000/svg" xmlns:xlink="http://www.w3.org/1999/xlink" x="0px" y="0px"
	 viewBox="0 0 88.7 88.7" style="enable-background:new 0 0 88.7 88.7;" xml:space="preserve">
<style type="text/css">
	.st0{fill:#003D70;}
	.st1{fill:#FF612B;}
</style>
<g>
	<path class="st0" d="M28.9,13.4c0-1-0.8-1.8-1.8-1.8h-1.8v3.6h1.8C28.1,15.3,28.9,14.4,28.9,13.4 M45.3,15.3h1.8v-3.6h-1.8
		c-1,0-1.8,0.8-1.8,1.8S44.3,15.3,45.3,15.3 M61.6,55.3h3.6v6.4c0,8.5-6.9,15.5-15.5,15.5s-15.5-6.9-15.5-15.5V46.1
		c-8.2-0.9-14.5-7.8-14.5-16.3h3.6c0,7,5.7,12.7,12.7,12.7s12.7-5.7,12.7-12.7h3.6c0,8.4-6.4,15.4-14.5,16.3v15.6
		c0,6.5,5.3,11.8,11.8,11.8s11.8-5.3,11.8-11.8C61.6,61.6,61.6,55.3,61.6,55.3z"/>
	<path class="st1" d="M65.3,46.2c0-1-0.8-1.8-1.8-1.8c-1,0-1.8,0.8-1.8,1.8s0.8,1.8,1.8,1.8C64.4,48,65.3,47.2,65.3,46.2 M68.9,46.2
		c0,2.4-1.5,4.4-3.6,5.1v4h-3.6v-4c-2.1-0.7-3.6-2.7-3.6-5.1c0-3,2.4-5.5,5.5-5.5C66.5,40.7,68.9,43.2,68.9,46.2 M48.9,11.6h-1.8
		v3.6h1.8v14.5h3.6V15.3C52.5,13.2,50.9,11.6,48.9,11.6 M23.4,11.6h1.8v3.6h-1.8v14.5h-3.6V15.3C19.8,13.2,21.4,11.6,23.4,11.6"/>
</g>
</svg>
