<?xml version="1.0" encoding="utf-8"?>
<!-- Generator: Adobe Illustrator 28.1.0, SVG Export Plug-In . SVG Version: 6.00 Build 0)  -->
<svg version="1.1" id="Layer_1" xmlns="http://www.w3.org/2000/svg" xmlns:xlink="http://www.w3.org/1999/xlink" x="0px" y="0px"
	 viewBox="0 0 88.7 88.7" style="enable-background:new 0 0 88.7 88.7;" xml:space="preserve">
<style type="text/css">
	.st0{fill:#FF612B;}
	.st1{fill:#FFFFFF;}
	.st2{fill:#003D70;}
</style>
<path class="st0" d="M48.3,20.7c-0.5-4.3-4-7.9-8.3-8.5c-0.5-0.1-1-0.1-1.5-0.1c-1.6,0-3.1,0.4-4.5,1.1c-0.8,0.4-1.7,0.6-2.6,0.6
	c-0.9,0-1.8-0.2-2.6-0.6c-1.4-0.7-2.9-1.1-4.5-1.1c-0.5,0-1,0-1.5,0.1c-4.3,0.6-7.7,4.2-8.3,8.5c-0.3,2.3,0.2,4.6,1.4,6.5
	c1.8,2.9,2.7,5.9,2.7,8.9v5.6c0,2.9,0.9,5.6,2.7,7.8c0.6,0.8,1.3,0.9,1.9,0.9c1.2,0,2.5-0.9,2.5-2.5v-1.8c0-2.9,2-5.3,4.7-5.8
	c0.3-0.1,0.7-0.1,1-0.1c3.1,0,5.7,2.5,5.7,5.7v2c0,1.6,1.3,2.5,2.5,2.5c0.5,0,1.3-0.2,1.8-0.9c1.8-2.3,2.7-5,2.7-7.8v-5.6
	c0-3,0.9-6,2.7-8.9C48.1,25.2,48.6,23,48.3,20.7"/>
<path class="st1" d="M24.2,18.4c0.2,0,0.4,0,0.5,0c0.3,0.1,0.7,0,0.9-0.3c0.6-0.6,0.3-1.7-0.6-1.8c-0.3,0-0.6-0.1-0.9-0.1
	c-2.6,0-4.8,1.8-5.4,4.3c-0.2,0.7,0.3,1.3,1,1.3c0.5,0,0.9-0.4,1-0.9C21.3,19.5,22.6,18.4,24.2,18.4"/>
<path class="st2" d="M54.8,52.1c-8.5,0-16.3,4.7-20.8,12.3c4.5,7.6,12.4,12.3,20.8,12.3S71.1,72,75.6,64.4
	C71.1,56.8,63.2,52.1,54.8,52.1"/>
<path class="st1" d="M54.8,68.5c-2.3,0-4.2-1.9-4.2-4.2c0-2.3,1.9-4.2,4.2-4.2c2.3,0,4.2,1.9,4.2,4.2C58.9,66.7,57.1,68.5,54.8,68.5
	 M54.8,54.3c-7.5,0-14.4,3.8-18.4,10.1c4,6.3,10.9,10.1,18.4,10.1s14.4-3.8,18.4-10.1C69.2,58.1,62.2,54.3,54.8,54.3"/>
<path class="st0" d="M54.8,68.5c-2.3,0-4.2-1.9-4.2-4.2c0-2.3,1.9-4.2,4.2-4.2c2.3,0,4.2,1.9,4.2,4.2C58.9,66.7,57.1,68.5,54.8,68.5
	 M54.8,56.1c-4.6,0-8.3,3.7-8.3,8.3s3.7,8.3,8.3,8.3s8.3-3.7,8.3-8.3S59.4,56.1,54.8,56.1"/>
</svg>
