<?xml version="1.0" encoding="utf-8"?>
<!-- Generator: Adobe Illustrator 28.1.0, SVG Export Plug-In . SVG Version: 6.00 Build 0)  -->
<svg version="1.1" id="Layer_1" xmlns="http://www.w3.org/2000/svg" xmlns:xlink="http://www.w3.org/1999/xlink" x="0px" y="0px"
	 viewBox="0 0 88.7 88.7" style="enable-background:new 0 0 88.7 88.7;" xml:space="preserve">
<style type="text/css">
	.st0{fill:#FF612B;}
	.st1{fill:#003D70;}
	.st2{fill:#FFFFFF;}
</style>
<path class="st0" d="M44.9,45.7v3.9c1.5-0.3,2.2-0.9,2.2-2.1C47.2,46.6,46.7,46.3,44.9,45.7"/>
<path class="st0" d="M41.8,40.6c0,0.9,0.4,1.3,1.9,1.6v-3.4C42.6,39,41.8,39.6,41.8,40.6"/>
<path class="st0" d="M49,50.3c-1,1-2.1,1.5-4,1.6v1.8h-1.2V52c-3.1-0.3-4.9-1.9-5.2-5.2h3c0,1.3,0.9,2.4,2.2,2.7v-4.2h-0.1
	c0,0-0.1,0-0.3-0.1c0,0-0.1,0-0.3-0.1c-2.8-0.7-4-1.9-4-4.2c0-1.5,0.4-2.5,1.5-3.3c0.9-0.7,1.6-0.9,3.3-1.2v-1.6h1.2v1.6
	c2.8,0.3,4.5,1.9,4.6,4.5h-3c0-1-0.9-2.1-1.8-1.9v3.7c1.9,0.4,2.8,0.9,3.7,1.5c1,0.7,1.5,1.9,1.5,3.3C50.2,48.5,49.7,49.5,49,50.3
	 M16,58.5h56.6V30.2H16L16,58.5L16,58.5z"/>
<path class="st1" d="M16,50.6v7.9h7.9C23.9,54.2,20.4,50.6,16,50.6"/>
<path class="st1" d="M16,38.1c4.3,0,7.9-3.6,7.9-7.9H16C16,30.2,16,38.1,16,38.1z"/>
<path class="st1" d="M64.8,30.2c0,4.3,3.6,7.9,7.9,7.9v-7.9C72.7,30.2,64.8,30.2,64.8,30.2z"/>
<path class="st1" d="M64.8,58.5h7.9v-7.9C68.4,50.6,64.8,54.2,64.8,58.5"/>
<path class="st2" d="M41.7,40.5c0-1,0.7-1.6,1.9-1.8v3.4C42.1,41.8,41.7,41.4,41.7,40.5 M44.8,45.5c1.8,0.4,2.2,0.9,2.2,1.8
	c0,1-0.7,1.8-2.2,2.1C44.8,49.4,44.8,45.5,44.8,45.5z M38.4,46.7c0.3,3.1,2.1,4.9,5.2,5.2v1.8h1.2v-1.8c1.9-0.1,3-0.6,4-1.6
	c0.7-0.7,1.2-1.8,1.2-3c0-1.3-0.6-2.5-1.5-3.3c-0.9-0.6-1.6-1-3.7-1.5v-3.7c0.9,0,1.6,0.9,1.8,1.9h3c-0.1-2.5-1.8-4.2-4.6-4.5v-1.6
	h-1.2v1.6c-1.6,0.1-2.4,0.4-3.3,1.2c-1,0.9-1.5,1.9-1.5,3.3c0,2.2,1.2,3.4,4,4.2c0.1,0,0.3,0,0.3,0.1c0.1,0,0.3,0.1,0.3,0.1h0.1v4.2
	c-1.3-0.3-2.2-1.3-2.2-2.7L38.4,46.7L38.4,46.7z"/>
</svg>
