<?xml version="1.0" encoding="utf-8"?>
<!-- Generator: Adobe Illustrator 28.1.0, SVG Export Plug-In . SVG Version: 6.00 Build 0)  -->
<svg version="1.1" id="Layer_1" xmlns="http://www.w3.org/2000/svg" xmlns:xlink="http://www.w3.org/1999/xlink" x="0px" y="0px"
	 viewBox="0 0 88.7 88.7" style="enable-background:new 0 0 88.7 88.7;" xml:space="preserve">
<style type="text/css">
	.st0{fill:#003D70;}
	.st1{fill:#FF612B;}
</style>
<path class="st0" d="M38.9,16.2c-3.9,0.7-7.5,2.3-10.7,4.5c-0.7-2.5-3-4.2-5.8-4.2c-3.3,0-6.1,2.7-6.1,6.1c0,2.7,1.7,4.9,4.2,5.8
	c-2.2,3.2-3.8,6.8-4.5,10.7c-0.1,1,0.4,2,1.4,2.2H18c0.9,0,1.7-0.6,1.9-1.6c1.9-9.8,9.8-17.8,19.6-19.6c1-0.1,1.7-1.1,1.4-2.2
	C40.9,16.8,39.9,16.1,38.9,16.2"/>
<path class="st1" d="M68.1,28.2c2.4-0.7,4.2-3,4.2-5.8c0-3.3-2.7-6.1-6.1-6.1c-2.7,0-4.9,1.7-5.8,4.2c-3.2-2.2-6.8-3.6-10.7-4.5
	c-1-0.1-2,0.4-2.2,1.4c-0.1,1,0.4,2,1.4,2.2c9.8,1.9,17.8,9.8,19.6,19.6c0.1,0.9,1,1.6,1.9,1.6H71c1-0.1,1.7-1.1,1.4-2.2
	C71.7,35,70.2,31.4,68.1,28.2"/>
<path class="st1" d="M39.6,68.8c-9.8-1.9-17.8-9.8-19.6-19.6c-0.1-1-1.1-1.7-2.2-1.4c-1,0.1-1.7,1.1-1.4,2.2
	c0.7,3.9,2.3,7.5,4.5,10.7c-2.4,0.7-4.2,3-4.2,5.8c0,3.3,2.7,6.1,6.1,6.1c2.7,0,4.9-1.7,5.8-4.2c3.2,2.2,6.8,3.6,10.7,4.5h0.4
	c0.9,0,1.7-0.6,1.9-1.6C41.3,69.9,40.6,68.9,39.6,68.8"/>
<path class="st0" d="M68.1,60.5c2.2-3.2,3.6-6.8,4.5-10.7c0.1-1-0.4-2-1.4-2.2c-1-0.1-2,0.4-2.2,1.4C67,59,59.1,66.9,49.3,68.8
	c-1,0.1-1.7,1.1-1.4,2.2c0.1,0.9,1,1.6,1.9,1.6h0.4c3.9-0.7,7.5-2.3,10.7-4.5c0.7,2.5,3,4.2,5.8,4.2c3.3,0,6.1-2.7,6.1-6.1
	C72.2,63.6,70.5,61.3,68.1,60.5"/>
</svg>
