<?xml version="1.0" encoding="utf-8"?>
<!-- Generator: Adobe Illustrator 28.2.0, SVG Export Plug-In . SVG Version: 6.00 Build 0)  -->
<svg version="1.1" id="Layer_1" xmlns="http://www.w3.org/2000/svg" xmlns:xlink="http://www.w3.org/1999/xlink" x="0px" y="0px"
	 viewBox="0 0 88.7 88.7" style="enable-background:new 0 0 88.7 88.7;" xml:space="preserve">
<style type="text/css">
	.st0{fill:#002677;}
	.st1{fill:#FF612B;}
	.st2{fill:#FFFFFF;}
</style>
<g id="white_space">
</g>
<g id="Layer_1_00000097495767993167734100000006217811943478255272_">
	<g>
		<g>
			<path class="st0" d="M44.3,40.6c-0.5,0-1,0-1.5,0.1v26.1c0,0.8-0.7,1.5-1.5,1.5c-0.8,0-1.5-0.7-1.5-1.5v-0.7
				c0-1.1-1.1-1.8-2.1-1.4l0,0c-0.5,0.2-0.9,0.8-0.9,1.4v0.6c0,2.1,1.5,4.1,3.6,4.5c2.9,0.6,5.4-1.6,5.4-4.4V40.7
				C45.3,40.7,44.8,40.6,44.3,40.6z"/>
			<g>
				<path class="st1" d="M44.3,17.3c-14.9,0-27,12.1-27,27c0,0.3,0,0.7,0.1,1c1.9-2.9,5.2-4.8,9-4.8c3.8,0,7.1,1.9,9,4.8
					c1.9-2.9,5.2-4.8,9-4.8s7.1,1.9,9,4.8c1.9-2.9,5.2-4.8,9-4.8c3.7,0,7,1.9,9,4.8c0-0.3,0.1-0.7,0.1-1
					C71.4,29.4,59.3,17.3,44.3,17.3z"/>
			</g>
		</g>
	</g>
	<g>
		<path class="st2" d="M23.1,36.5c-0.2,0-0.3,0-0.5-0.1c-0.6-0.3-0.8-0.9-0.6-1.5c4-8.9,12.9-14.6,22.6-14.6c0.6,0,1.1,0.5,1.1,1.1
			s-0.5,1.1-1.1,1.1c-8.8,0-16.9,5.2-20.5,13.2C24,36.2,23.6,36.5,23.1,36.5z"/>
	</g>
</g>
</svg>
