<?xml version="1.0" encoding="utf-8"?>
<!-- Generator: Adobe Illustrator 28.2.0, SVG Export Plug-In . SVG Version: 6.00 Build 0)  -->
<svg version="1.1" id="Layer_1" xmlns="http://www.w3.org/2000/svg" xmlns:xlink="http://www.w3.org/1999/xlink" x="0px" y="0px"
	 viewBox="0 0 88.7 88.7" style="enable-background:new 0 0 88.7 88.7;" xml:space="preserve">
<style type="text/css">
	.st0{fill:#FF612B;}
	.st1{fill:#002677;}
</style>
<g>
	<g>
		<g>
			<circle class="st0" cx="44.3" cy="44.3" r="18.5"/>
		</g>
		<g>
			<path class="st0" d="M43.6,13L43.6,13c-0.5,0.3-0.9,0.8-0.9,1.3v8.4h3.2v-8.4C45.9,13.3,44.7,12.5,43.6,13z"/>
		</g>
		<g>
			<path class="st0" d="M30.2,28l-5.9-5.9c-0.8-0.8-2.2-0.5-2.6,0.6l0,0c-0.2,0.6,0,1.2,0.4,1.5l5.9,5.9L30.2,28z"/>
		</g>
		<g>
			<path class="st0" d="M22.7,42.8h-8.4c-1.2,0-1.9,1.2-1.3,2.2l0,0c0.3,0.5,0.8,0.9,1.3,0.9h8.4V42.8L22.7,42.8z"/>
		</g>
		<g>
			<path class="st0" d="M22.7,67L22.7,67c0.6,0.2,1.2,0,1.5-0.4l5.9-5.9l-2.2-2.2L22,64.4C21.3,65.2,21.6,66.6,22.7,67z"/>
		</g>
		<g>
			<path class="st0" d="M45.1,75.7L45.1,75.7c0.5-0.3,0.9-0.8,0.9-1.3V66h-3.1v8.4C42.8,75.4,44,76.2,45.1,75.7z"/>
		</g>
		<g>
			<path class="st0" d="M58.5,60.7l5.9,5.9c0.8,0.8,2.2,0.5,2.6-0.6l0,0c0.2-0.6,0-1.2-0.4-1.5l-5.9-5.9L58.5,60.7z"/>
		</g>
		<g>
			<path class="st0" d="M66,45.9h8.4c1.2,0,1.9-1.2,1.3-2.2l0,0c-0.3-0.5-0.8-0.9-1.3-0.9H66V45.9L66,45.9z"/>
		</g>
		<g>
			<path class="st0" d="M66,21.7L66,21.7c-0.6-0.2-1.2,0-1.5,0.4L58.6,28l2.2,2.2l5.9-5.9C67.4,23.5,67.1,22,66,21.7z"/>
		</g>
	</g>
	<path class="st1" d="M55.1,44.3c-0.8,0-1.4,0.6-1.5,1.3c-0.7,4.5-4.5,8-9.2,8s-8.5-3.5-9.2-8c-0.1-0.8-0.8-1.3-1.5-1.3l0,0
		c-1,0-1.6,0.9-1.5,1.7c0.9,6,6,10.7,12.2,10.7S55.6,52.1,56.4,46C56.7,45.2,56,44.3,55.1,44.3L55.1,44.3z"/>
</g>
</svg>
