<?xml version="1.0" encoding="utf-8"?>
<!-- Generator: Adobe Illustrator 28.2.0, SVG Export Plug-In . SVG Version: 6.00 Build 0)  -->
<svg version="1.1" id="Layer_1" xmlns="http://www.w3.org/2000/svg" xmlns:xlink="http://www.w3.org/1999/xlink" x="0px" y="0px"
	 viewBox="0 0 88.7 88.7" style="enable-background:new 0 0 88.7 88.7;" xml:space="preserve">
<style type="text/css">
	.st0{fill:#002677;}
	.st1{fill:#FF612B;}
	.st2{fill:#FFFFFF;}
</style>
<path class="st0" d="M28.2,43.5c0-0.7,0.6-1.3,1.3-1.3s1.3,0.6,1.3,1.3s-0.6,1.3-1.3,1.3C28.8,45,28.2,44.3,28.2,43.5 M72.3,41.2
	h-4.7c-2.6-5.4-8.2-9.3-14.7-9.3H36.1c-0.6-3.5-3.5-6.2-7.2-6.2v7.8c-3.8,1.9-6.9,5.2-8.4,9.3h-2.2c-1,0-1.9,0.9-1.9,1.9v3.8
	c0,1.2,0.7,2.2,1.8,2.6l1.8,0.7c1.3,6,6,10.7,12.1,12.2l2.1,5.2h5.7v-4.7h14v4.7h5.2l2.8-7.2c4.6-2.9,7.6-7.9,7.6-13.8
	c0-0.9-0.1-1.8-0.3-2.6L72.3,41.2L72.3,41.2z"/>
<path class="st1" d="M55.2,33.8c1-1.5,1.5-3.2,1.5-5.2c0-5.2-4.1-9.3-9.3-9.3s-9.3,4.1-9.3,9.3c0,1.9,0.6,3.7,1.5,5.2
	C39.6,33.8,55.2,33.8,55.2,33.8z"/>
<path class="st2" d="M28.2,43.5c0-0.7,0.6-1.3,1.3-1.3s1.3,0.6,1.3,1.3s-0.6,1.3-1.3,1.3C28.8,45,28.2,44.3,28.2,43.5"/>
</svg>
