<?xml version="1.0" encoding="utf-8"?>
<!-- Generator: Adobe Illustrator 28.2.0, SVG Export Plug-In . SVG Version: 6.00 Build 0)  -->
<svg version="1.1" id="Layer_1" xmlns="http://www.w3.org/2000/svg" xmlns:xlink="http://www.w3.org/1999/xlink" x="0px" y="0px"
	 viewBox="0 0 88.7 88.7" style="enable-background:new 0 0 88.7 88.7;" xml:space="preserve">
<style type="text/css">
	.st0{fill:#002677;}
	.st1{fill:#FF612B;}
</style>
<g id="white_space">
</g>
<g id="Layer_1_00000063628663295007562650000018071651262661715338_">
	<path class="st0" d="M68.4,45L64,31.7l0,0c-2.9-9.1-11.4-15.7-21.4-15.7c-12.4,0-22.4,10-22.4,22.4c0,7.3,3.5,13.8,9,17.9v7.5
		l22.4,9V62.3h4.5c5,0,9-4,9-9v-4.5h0.5C67.5,48.8,68.9,46.9,68.4,45z"/>
	<path class="st1" d="M48.9,25.1c-2.1-2.1-5.6-2.1-7.8,0l-1.2,1.2l-1.2-1.2c-2.1-2.1-5.6-2.1-7.8,0c-2.1,2.1-2.1,5.6,0,7.8l1.2,1.2
		l7.8,7.8l0,0l0,0l9-9C51,30.7,51,27.2,48.9,25.1z"/>
</g>
</svg>
