<?xml version="1.0" encoding="utf-8"?>
<!-- Generator: Adobe Illustrator 28.2.0, SVG Export Plug-In . SVG Version: 6.00 Build 0)  -->
<svg version="1.1" id="Layer_1" xmlns="http://www.w3.org/2000/svg" xmlns:xlink="http://www.w3.org/1999/xlink" x="0px" y="0px"
	 viewBox="0 0 88.7 88.7" style="enable-background:new 0 0 88.7 88.7;" xml:space="preserve">
<style type="text/css">
	.st0{fill:#002677;}
	.st1{fill:#FF612B;}
</style>
<path class="st0" d="M68.4,45L64,31.7l0,0C61.1,22.6,52.6,16,42.6,16c-12.4,0-22.4,10-22.4,22.4c0,7.3,3.5,13.8,9,17.9v7.5l22.4,9
	V62.3h4.5c5,0,9-4,9-9v-4.5h0.5C67.5,48.8,68.9,46.9,68.4,45"/>
<path class="st1" d="M52.3,26.5c0-2.3-1.3-4.1-3.7-5.2c-4.3-1.8-9.3-1.8-13.9,0.4c-3.8,1.8-6.8,5-8.4,8.9c-0.9,2-1.5,4.4-1.1,6.6
	c0.4,2.2,2.1,3.9,4.3,4.5c0.9,0.2,1.8,0.2,2.6,0s1.4-0.7,2-1.3c1.4-1.4,2.7-2.8,4.3-3.9c2.4-1.8,5.2-3.1,8-4.1
	c0.8-0.3,1.7-0.5,2.5-0.9c1.5-0.6,2.7-1.9,3.1-3.4C52.2,27.5,52.3,27,52.3,26.5"/>
</svg>
