<?xml version="1.0" encoding="utf-8"?>
<!-- Generator: Adobe Illustrator 28.2.0, SVG Export Plug-In . SVG Version: 6.00 Build 0)  -->
<svg version="1.1" id="Layer_1" xmlns="http://www.w3.org/2000/svg" xmlns:xlink="http://www.w3.org/1999/xlink" x="0px" y="0px"
	 viewBox="0 0 88.7 88.7" style="enable-background:new 0 0 88.7 88.7;" xml:space="preserve">
<style type="text/css">
	.st0{fill:#FF612B;}
	.st1{fill:#002677;}
</style>
<path class="st0" d="M63.4,15.6c-3-2.2-7.1-2.8-10.8-1.1c-3.7,1.6-6,5.1-6.4,8.8c3,2.2,7.1,2.8,10.8,1.1
	C60.7,22.8,63,19.4,63.4,15.6"/>
<path class="st1" d="M58.8,29.5c-4.2-1.9-8.8-1.6-12.6,0.2v-6.4l-3.7,1.6v4.8c-3.8-1.9-8.4-2.1-12.6-0.2c-7.6,3.4-11,12.3-7.6,19.8
	l2.9,6.5l0,0c0,0,3.9,8.8,4.1,9.1c1.9,3.7,5.8,6.2,10.2,6.2c1.7,0,3.4-0.4,4.9-1.1c1.5,0.7,3.1,1.1,4.9,1.1c4.5,0,8.3-2.5,10.2-6.2
	c0.2-0.3,4.1-9.1,4.1-9.1l0,0l2.9-6.5C69.9,41.7,66.4,32.8,58.8,29.5"/>
</svg>
