<?xml version="1.0" encoding="utf-8"?>
<!-- Generator: Adobe Illustrator 28.2.0, SVG Export Plug-In . SVG Version: 6.00 Build 0)  -->
<svg version="1.1" id="Layer_1" xmlns="http://www.w3.org/2000/svg" xmlns:xlink="http://www.w3.org/1999/xlink" x="0px" y="0px"
	 viewBox="0 0 88.7 88.7" style="enable-background:new 0 0 88.7 88.7;" xml:space="preserve">
<style type="text/css">
	.st0{fill:#002677;}
	.st1{fill:#FFFFFF;}
	.st2{fill:#FF612B;}
</style>
<g>
	<g>
		<path class="st0" d="M44.3,54.2c-7.6,0-14.7,4.2-18.7,11.1c4.1,6.8,11.3,11.1,18.7,11.1S58.9,72.2,63,65.3
			C59,58.3,52,54.2,44.3,54.2"/>
		<path class="st1" d="M44.3,68.9c-2.1,0-3.8-1.7-3.8-3.8c0-2.1,1.7-3.8,3.8-3.8c2.1,0,3.8,1.7,3.8,3.8
			C48.1,67.2,46.3,68.9,44.3,68.9 M44.3,56.1c-6.8,0-13,3.4-16.6,9.2c3.7,5.6,9.8,9.2,16.6,9.2s13-3.4,16.6-9.2
			C57.3,59.5,51.1,56.1,44.3,56.1"/>
		<path class="st2" d="M44.3,68.9c-2.1,0-3.8-1.7-3.8-3.8c0-2.1,1.7-3.8,3.8-3.8c2.1,0,3.8,1.7,3.8,3.8
			C48.1,67.2,46.3,68.9,44.3,68.9 M44.3,57.7c-4.2,0-7.5,3.3-7.5,7.5s3.3,7.5,7.5,7.5s7.5-3.3,7.5-7.5
			C51.8,61.1,48.6,57.7,44.3,57.7"/>
	</g>
	<g>
		<path class="st2" d="M43.2,20.5c-0.4-3.9-3.7-7.1-7.5-7.6c-0.4-0.1-0.9-0.1-1.3-0.1c-1.4,0-2.7,0.4-4.1,1
			c-0.8,0.4-1.6,0.5-2.4,0.5c-0.8,0-1.6-0.1-2.4-0.5c-1.3-0.7-2.6-1-4.1-1c-0.4,0-0.9,0-1.3,0.1c-3.9,0.5-6.9,3.8-7.5,7.6
			c-0.3,2.1,0.1,4.2,1.3,5.9c1.6,2.6,2.5,5.4,2.5,8v5.1c0,2.6,0.8,5.1,2.5,7.1c0.5,0.8,1.2,0.8,1.7,0.8c1,0,2.2-0.8,2.2-2.2v-1.6
			c0-2.6,1.8-4.7,4.2-5.2c0.3-0.1,0.7-0.1,0.9-0.1c2.7,0,5.1,2.2,5.1,5.1v1.8c0,1.4,1.2,2.2,2.2,2.2c0.4,0,1.2-0.1,1.6-0.8
			c1.6-2.1,2.5-4.4,2.5-7.1v-5.1c0-2.7,0.8-5.4,2.5-8C43.1,24.6,43.5,22.6,43.2,20.5"/>
		<path class="st1" d="M21.5,18.4c0.1,0,0.4,0,0.4,0c0.3,0.1,0.7,0,0.8-0.3c0.5-0.5,0.3-1.6-0.5-1.6c-0.3,0-0.5-0.1-0.8-0.1
			c-2.4,0-4.3,1.6-4.8,3.9c-0.1,0.7,0.4,1.2,0.9,1.2c0.4,0,0.8-0.4,0.9-0.8C18.9,19.5,20.1,18.4,21.5,18.4"/>
		<g id="Layer_1_00000056404021179251724130000012110325313962336915_">
			<g>
				<g>
					<path class="st2" d="M64.8,12.3c-6.1,0-11.1,5.1-11.1,11.1v17.1c0,3.9,3.3,7.3,7.3,7.3c2.7,0,5.1-1.4,6.4-3.9l7.5-15.8l0,0
						c0.8-1.4,1-3,1-4.6C76,17.3,70.9,12.3,64.8,12.3z"/>
				</g>
				<path class="st0" d="M64.5,17c-3.7,0.1-6.5,3.4-6.5,7.1v2.5l0,0l0,0l0,0c1.6-0.1,3,0.7,3.9,1.8c2.2,3.7-0.4,7.5-3.9,7.5l0,0v1.7
					l0,0c3.5,0,6.4-2.9,6.4-6.4c0-3-2.1-5.4-4.7-6.1v-0.8c0-2.7,2.1-5.2,4.8-5.5c2.4-0.1,4.4,1.2,5.2,3.3c0.1,0.4,0.8,0.8,1.2,0.4
					l0,0c0.4-0.1,0.7-0.8,0.4-1C70.2,18.7,67.4,17,64.5,17z"/>
			</g>
		</g>
	</g>
</g>
</svg>
