<?xml version="1.0" encoding="utf-8"?>
<!-- Generator: Adobe Illustrator 22.1.0, SVG Export Plug-In . SVG Version: 6.00 Build 0)  -->
<svg version="1.1" xmlns="http://www.w3.org/2000/svg" xmlns:xlink="http://www.w3.org/1999/xlink" x="0px" y="0px"
	 viewBox="0 0 115 115" style="enable-background:new 0 0 115 115;" xml:space="preserve">
<style type="text/css">
	.st0{fill:none;}
	.st1{fill:#006997;}
	.st2{fill:#DB1F26;}
	.st3{fill:#FFFFFF;}
</style>
<g id="Layer_2">
	<rect class="st0" width="115" height="115"/>
</g>
<g id="Layer_1">
	<g>
		<path class="st3" d="M82.2,97.4V17.6c0-1.7-1.1-3.1-2.5-3.1H35.2c-1.4,0-2.5,1.4-2.5,3.1v79.7c0,1.7,1.1,3.1,2.5,3.1h44.5
			C81.1,100.5,82.2,99.1,82.2,97.4 M53.7,91.1h7.7v4.8h-7.7V91.1z M36.1,93.3c0.4,0,0.8,0.3,0.8,0.7v0.6c0,1.1,0.6,2,1.4,2h6.6
			c0.4,0,0.8,0.3,0.8,0.7s-0.3,0.7-0.8,0.7h-6.6c-1.6,0-2.9-1.6-2.9-3.5V94C35.3,93.6,35.7,93.3,36.1,93.3 M62.8,19.9
			c0,0.5-0.4,0.9-1,0.9h-8.8c-0.5,0-1-0.4-1-0.9V19c0-0.5,0.4-0.9,1-0.9h8.8c0.5,0,1,0.4,1,0.9V19.9z M65.9,19.4
			c0,0.3-0.3,0.6-0.6,0.6s-0.6-0.3-0.6-0.6c0-0.3,0.3-0.6,0.6-0.6S65.9,19.1,65.9,19.4 M79,86.5H36.1V24H79V86.5z M79.7,94.6
			c0,1.9-1.3,3.5-2.9,3.5h-6.6c-0.4,0-0.8-0.3-0.8-0.7s0.3-0.7,0.8-0.7h6.6c0.7,0,1.4-0.9,1.4-2V94c0-0.4,0.3-0.7,0.8-0.7
			c0.4,0,0.8,0.3,0.8,0.7V94.6z M40.4,29.1v6.9c0,0.6,0.5,1.1,1.1,1.1h7.2c0.6,0,1.1-0.5,1.1-1.1v-6.9c0-0.6-0.5-1.1-1.1-1.1h-7.2
			C41,28,40.4,28.5,40.4,29.1 M40.4,41.5v6.9c0,0.6,0.5,1.1,1.1,1.1h7.2c0.6,0,1.1-0.5,1.1-1.1v-6.9c0-0.6-0.5-1.1-1.1-1.1h-7.2
			C41,40.4,40.4,40.9,40.4,41.5 M40.4,53.8v6.9c0,0.6,0.5,1.1,1.1,1.1h7.2c0.6,0,1.1-0.5,1.1-1.1v-6.9c0-0.6-0.5-1.1-1.1-1.1h-7.2
			C41,52.7,40.4,53.2,40.4,53.8 M40.4,75.9v6.9c0,0.6,0.5,1.1,1.1,1.1h7.2c0.6,0,1.1-0.5,1.1-1.1v-6.9c0-0.6-0.5-1.1-1.1-1.1h-7.2
			C41,74.8,40.4,75.3,40.4,75.9 M52.6,29.1v6.9c0,0.6,0.5,1.1,1.1,1.1h7.2c0.6,0,1.1-0.5,1.1-1.1v-6.9c0-0.6-0.5-1.1-1.1-1.1h-7.2
			C53.1,28,52.6,28.5,52.6,29.1 M52.6,41.5v6.9c0,0.6,0.5,1.1,1.1,1.1h7.2c0.6,0,1.1-0.5,1.1-1.1v-6.9c0-0.6-0.5-1.1-1.1-1.1h-7.2
			C53.1,40.4,52.6,40.9,52.6,41.5 M52.6,53.8v6.9c0,0.6,0.5,1.1,1.1,1.1h7.2c0.6,0,1.1-0.5,1.1-1.1v-6.9c0-0.6-0.5-1.1-1.1-1.1h-7.2
			C53.1,52.7,52.6,53.2,52.6,53.8 M52.6,75.9v6.9c0,0.6,0.5,1.1,1.1,1.1h7.2c0.6,0,1.1-0.5,1.1-1.1v-6.9c0-0.6-0.5-1.1-1.1-1.1h-7.2
			C53.1,74.8,52.6,75.3,52.6,75.9 M64.7,29.1v6.9c0,0.6,0.5,1.1,1.1,1.1H73c0.6,0,1.1-0.5,1.1-1.1v-6.9c0-0.6-0.5-1.1-1.1-1.1h-7.2
			C65.2,28,64.7,28.5,64.7,29.1 M64.7,41.5v6.9c0,0.6,0.5,1.1,1.1,1.1H73c0.6,0,1.1-0.5,1.1-1.1v-6.9c0-0.6-0.5-1.1-1.1-1.1h-7.2
			C65.2,40.4,64.7,40.9,64.7,41.5 M64.7,53.8v6.9c0,0.6,0.5,1.1,1.1,1.1H73c0.6,0,1.1-0.5,1.1-1.1v-6.9c0-0.6-0.5-1.1-1.1-1.1h-7.2
			C65.2,52.7,64.7,53.2,64.7,53.8 M64.7,75.9v6.9c0,0.6,0.5,1.1,1.1,1.1H73c0.6,0,1.1-0.5,1.1-1.1v-6.9c0-0.6-0.5-1.1-1.1-1.1h-7.2
			C65.2,74.8,64.7,75.3,64.7,75.9"/>
	</g>
</g>
</svg>
