<?xml version="1.0" encoding="utf-8"?>
<!-- Generator: Adobe Illustrator 22.1.0, SVG Export Plug-In . SVG Version: 6.00 Build 0)  -->
<svg version="1.1" xmlns="http://www.w3.org/2000/svg" xmlns:xlink="http://www.w3.org/1999/xlink" x="0px" y="0px"
	 viewBox="0 0 115 115" style="enable-background:new 0 0 115 115;" xml:space="preserve">
<style type="text/css">
	.st0{fill:none;}
	.st1{fill:#006997;}
	.st2{fill:#DB1F26;}
	.st3{fill:#FFFFFF;}
</style>
<g id="Layer_2">
	<rect class="st0" width="115" height="115"/>
</g>
<g id="Layer_1">
	<g>
		<path class="st3" d="M85.7,49.9c-3,0-5.4-2.3-5.4-5.1c0-2.8,2.4-5.1,5.4-5.1c3,0,5.4,2.3,5.4,5.1C91.1,47.6,88.7,49.9,85.7,49.9
			 M85.7,33.9c-6.4,0-11.5,4.9-11.5,10.9c0,4.6,3.1,8.7,7.7,10.2l0.9,0.3v18.1c0,10.2-8.7,18.4-19.5,18.4
			c-10.7,0-19.5-8.3-19.5-18.4v-5l1.1-0.2c10.7-2,18.5-10.9,18.5-21.2V29.4c0-1.6-1.4-2.9-3.1-2.9h-9.9c-1.7,0-3.1,1.3-3.1,2.9
			c0,1.6,1.4,2.9,3.1,2.9h6.8v14.7c0,8.7-7.5,15.8-16.8,15.8c-9.2,0-16.8-7.1-16.8-15.8V32.3h6.2c1.7,0,3.1-1.3,3.1-2.9
			c0-1.6-1.4-2.9-3.1-2.9h-9.3c-1.7,0-3.1,1.3-3.1,2.9v17.6c0,10.5,8,19.5,18.9,21.3l1.1,0.2v5c0,13.3,11.5,24.2,25.6,24.2
			C77.5,97.5,89,86.7,89,73.3V55.2l0.9-0.3c4.4-1.6,7.4-5.7,7.4-10.1C97.2,38.8,92.1,33.9,85.7,33.9"/>
	</g>
</g>
</svg>
